<svg width="20" height="20" viewBox="0 0 20 20" fill="none" xmlns="http://www.w3.org/2000/svg">
<path d="M8.70898 16.4199C10.484 16.4196 12.2078 15.8254 13.606 14.7319L18.002 19.1279L19.416 17.7139L15.02 13.3179C16.114 11.9196 16.7086 10.1954 16.709 8.41992C16.709 4.00892 13.12 0.419922 8.70898 0.419922C4.29798 0.419922 0.708984 4.00892 0.708984 8.41992C0.708984 12.8309 4.29798 16.4199 8.70898 16.4199ZM8.70898 2.41992C12.018 2.41992 14.709 5.11092 14.709 8.41992C14.709 11.7289 12.018 14.4199 8.70898 14.4199C5.39998 14.4199 2.70898 11.7289 2.70898 8.41992C2.70898 5.11092 5.39998 2.41992 8.70898 2.41992Z" fill="black"/>
</svg>
